/* XPM */
static char *TSC Icon 2_xpm[] = {
/* columns rows colors chars-per-pixel */
"32 32 234 2",
"k  c Black",
"4  c #CACACA",
"W. c #0F0F0F",
"H. c #1E8E8E",
"aX c #BFDEDE",
"0X c #0D8585",
"kX c #87C2C2",
"k. c #006A6A",
"8. c #5A5A5A",
"b  c #3D8787",
"2  c #7BBDBD",
"Y. c #969696",
"7. c #178A8A",
"sX c #43A1A1",
"n  c #6AB4B4",
">X c #80BEBE",
"e. c #2A8484",
"E  c #037171",
"&  c #0B4D4D",
"*. c #262626",
"b. c #218F8F",
"#. c #444444",
"H  c #9BCCCC",
"A  c #626262",
"-  c #EEF6F6",
"c  c #005E5E",
"S  c #808080",
"h. c #B6DADA",
"#  c #2B9494",
"[  c #348686",
"4. c #1C8282",
"/. c #F8FBFB",
"D  c #CBCBCB",
"u  c #101010",
"y  c #1F1F1F",
"XX c #E7F2F2",
"9X c #0E8686",
"n. c #359999",
"O  c #77BABA",
"L. c #F1F7F7",
"c. c #3F9E9E",
"_  c #B5B5B5",
"j  c #078282",
"m  c #339999",
"0  c #5AACAC",
".X c #FBFCFC",
"F. c #272727",
"`. c #363636",
"r. c #49A3A3",
"M. c #118787",
"N  c #849191",
"<X c #64B1B1",
"e  c #8BC4C4",
"]  c #085A5A",
"X  c #007E7E",
"V  c #DEEEEE",
"7X c #2C9595",
":. c #53A8A8",
"pX c #CDE5E5",
";. c #A6D2D2",
"2. c #007B7B",
"i. c #718E8E",
"x  c #007878",
"i  c #3E3E3E",
"F  c #007575",
"V. c #51A8A8",
"&. c #7A7A7A",
"u. c #007272",
"m. c #198C8C",
"@  c #67B2B2",
"=. c #638C8C",
"xX c #93C9C9",
"6. c #2F9696",
",  c #006F6F",
"}. c #82C0C0",
"U  c #E3E3E3",
" . c #282828",
"+X c #F2F2F2",
"E. c #373737",
"y. c #239191",
"w  c #508989",
"p. c #C4E1E1",
"~. c #B3D8D8",
"+  c #7BBCBC",
"O. c #CEE6E6",
";  c #F5F9F9",
"t  c #43A0A0",
"^  c #CDCDCD",
"G  c #5A8B8B",
"C. c #121212",
"'  c #006363",
"J  c #96CACA",
"C  c #6FB7B7",
"@X c #0B8484",
"3X c #3F3F3F",
"|. c #D8EBEB",
"tX c #269292",
"*  c #478888",
"2X c #6C6C6C",
"]. c #7B7B7B",
"Q. c #158989",
"D. c #8A8A8A",
"1X c #B7B7B7",
">  c #57AAAA",
"OX c #C6C6C6",
"1. c #0B0B0B",
"(. c #D1E7E7",
"9. c #D5D5D5",
"/  c #E4E4E4",
"!  c #1F8E8E",
"'. c #292929",
"Y  c #F3F3F3",
"yX c #99CBCB",
"L  c #474747",
" X c #ECF5F5",
"^. c #DBECEC",
"P. c #8DC6C6",
"8X c #028080",
"5  c #929292",
"7  c #A1A1A1",
"3  c #F6FAFA",
"J. c #44A1A1",
"a. c #BEDEDE",
"B  c #E5F1F1",
"I  c #DDDDDD",
"<. c #222222",
"l  c #313131",
"s. c #5FAFAF",
"r  c #86C2C2",
"Z  c #4F4F4F",
"v  c #0A5353",
"   c #008080",
"uX c #EFF6F6",
"6  c #8B8B8B",
"3. c #046B6B",
"a  c #007D7D",
"%. c #9A9A9A",
"oX c #A9A9A9",
"v. c #058181",
"(  c #B8B8B8",
"0. c #007A7A",
"gX c #F9FBFB",
"t. c #47A2A2",
"Q  c #208F8F",
"cX c #73B9B9",
"$  c #007777",
">. c #484848",
"h  c #0F8686",
"1  c #8E9292",
"o  c #3B9D9D",
"R  c #007474",
"&X c #A4D1D1",
"o. c #7B8F8F",
"X. c #007171",
"p  c #B1B1B1",
"}  c #C0C0C0",
";X c #232323",
"j. c #5BACAC",
"9  c #D5E9E9",
"z. c #258484",
"q. c #006868",
"I. c #178B8B",
"f. c #6D8D8D",
"T. c #8C8C8C",
"$X c #B8DBDB",
"G. c #068282",
".. c #B9B9B9",
"K. c #A7D2D2",
":  c #CEE5E5",
"dX c #FAFCFC",
"W  c #128181",
"Z. c #2B2B2B",
"d  c #017878",
"#X c #379A9A",
"g  c #108787",
"|  c #585858",
"wX c #8AC4C4",
"{  c #2B9595",
"%X c #F3F8F8",
")  c #A3A3A3",
"{. c #1A8C8C",
"N. c #68B2B2",
"x. c #419F9F",
"P  c #B2B2B2",
"<  c None",
"%  c #005959",
"4X c #098383",
"=X c #DFDFDF",
"6X c #5CADAD",
"fX c #FDFDFD",
"U. c #424242",
"f  c #098080",
"K  c #4BA4A4",
"R. c #606060",
"=  c #77BBBB",
"$. c #6F6F6F",
"zX c #188C8C",
"iX c #078383",
"qX c #55A9A9",
",. c #ABABAB",
",X c #CFE6E6",
"B. c #A8D3D3",
"8  c #D8D8D8",
"@. c #1D1D1D",
"5X c #389B9B",
"A. c #686868",
"l. c #066464",
".  c #007F7F",
"jX c #7ABCBC",
"). c #53A9A9",
"[. c #A4A4A4",
"w. c #066161",
"T  c #007C7C",
"eX c #42A0A0",
"!. c #69B3B3",
"S. c #B3B3B3",
"g. c #BCDDDD",
"rX c #0A8484",
"5. c #319797",
"s  c #007979",
"`  c #E0E0E0",
"-. c #ABD4D4",
"*X c #EFEFEF",
"q  c #007676",
"~  c #525252",
"lX c #C6E2E2",
"hX c #3B9C9C",
":X c #148989",
"d. c #007373",
"+. c #67B3B3",
"-X c #8E8E8E",
"_. c #9D9D9D",
"z  c #ACACAC",
"M  c #007070",
/* pixels */
"  . . . . . . . . . . . . . . . . . . . . . . X X X . . . . . . ",
"  o O + + + + + + + + + + + + + + + + + + @ # $ % & * + + O o . ",
"  = - ; ; ; ; ; ; ; ; ; ; ; ; ; ; ; ; ; ; : > , < < 1 ; ; - = . ",
"  2 3 4 5 6 6 6 6 6 6 6 6 6 6 6 6 6 6 7 8 9 0 q < < w e e r t . ",
"  2 3 5 y u u u u u u u u u u u u u u i p 9 0 a s d f g g h j . ",
"  2 3 6 u k k k k k k k k k k k k k k l z 9 0 x c v b n n @ m . ",
"  2 3 6 u k k k k k k k k k k k k k k l z 9 0 M < < N B B V C . ",
"  2 3 6 u k k k k k k y Z A A A A A A S D 9 0 F < < G H H J K . ",
"  2 3 6 u k k k k k k L P I I I I I I U Y 9 0 T R E W Q Q ! h . ",
"  2 3 6 u k k k k k k ~ ^ / ( ) ) ) ) _ ` 9 0 s ' ] [ 0 0 > { . ",
"  2 3 6 u k k k k k k ~ ^ } |  . . . .~ ..9 0 X.< < o.9 9 O.+.. ",
"  2 3 6 u k k k k @.#.$.%.&.*.k k k k l z 9 0 R < < =.-.-.;.:.. ",
"  2 3 6 u k k k k >.,.%.Z <.1.k k k k l z 9 0 2., 3.4.5.5.6.7.. ",
"  2 3 6 u k k k k 8.9.z l k k k k k k l z 9 0 0.q.w.e.r.r.t.y.. ",
"  2 3 6 u k k k k 8.9.z l k k k k k k l z 9 0 u.< < i.p.p.a.s.. ",
"  2 3 6 u k k k k 8.9.z l k k k k k k l z 9 0 d.< < f.g.g.h.j.. ",
"  2 3 6 u k k k k 8.9.z l k k k k k k l z 9 0 0.k.l.z.x.x.c.! . ",
"  2 3 6 u k k k k 8.9.z l k k k k k k l z 9 0     v.b.n.m.      ",
"  2 3 6 u k k k k 8.9.z l k k k k k k l z 9 0     M.N.B.V.      ",
"  2 3 6 u k k C.Z.A.S.D.F.k k k k k k l z 9 0 G.H.J.K.L.P.6.I.. ",
"  2 3 6 u k k U.Y.T.R.E.W.k k k k k k l z 9 0 Q.!.~.^./.(.;.).. ",
"  2 3 _.`.'.'.].U [.'.k k k k k k k k l z 9 0 {.}.|. X.XXXO.@ . ",
"  2 3 9.oX) ) OX+X[.'.k k k k k k k k l z 9 0 @X#X!.$X%X&X> # . ",
"  2 3 *X=XI I I I -X;Xk k k k k k k k l z 9 0     :X>X,X<X      ",
"  2 3 1X2XA A A A 3XW.k k k k k k k k l z 9 0     4X5X6X7X      ",
"  2 3 6 u k k k k k k k k k k k k k k l z 9 0     8X9X7.@X      ",
"  2 3 6 u k k k k k k k k k k k k k k l z 9 0     0XqXwXeX      ",
"  2 3 5 y u u u u u u u u u u u u u u i p 9 0 8XrXtXyXuX2 h iX. ",
"  2 3 4 5 6 6 6 6 6 6 6 6 6 6 6 6 6 6 7 8 9 0 M.qXJ pX3 aXr sX. ",
"  O - ; ; ; ; ; ; ; ; ; ; ; ; ; ; ; ; ; ; : > H.J 3 dXfXgX- O . ",
"  hXO jXjXjXjXjXjXjXjXjXjXjXjXjXjXjXjXjXjX@ # h K kXlX; h.O hX. ",
"                                                  zXxX- cX      "
};
